<svg width="93" height="9" viewBox="0 0 93 9" fill="none" xmlns="http://www.w3.org/2000/svg">
<path d="M9.40793 0.083976C9.54393 0.083976 9.66793 0.0959761 9.77993 0.119976C9.89993 0.143976 9.99593 0.211976 10.0679 0.323977C10.1399 0.435977 10.1759 0.619977 10.1759 0.875977C10.1759 1.11598 10.1359 1.29198 10.0559 1.40398C9.98393 1.51598 9.88793 1.58798 9.76793 1.61998C9.65593 1.64398 9.53193 1.65598 9.39593 1.65598H5.99993V7.59598C5.99993 7.74798 5.98393 7.89198 5.95193 8.02798C5.91993 8.16398 5.83993 8.27598 5.71193 8.36398C5.59193 8.44398 5.38393 8.48398 5.08793 8.48398C4.80793 8.48398 4.60393 8.43998 4.47593 8.35198C4.34793 8.26398 4.26793 8.15198 4.23593 8.01598C4.21193 7.87998 4.19993 7.73598 4.19993 7.58398V1.65598H0.77993C0.65193 1.65598 0.52793 1.64398 0.40793 1.61998C0.28793 1.58798 0.18793 1.51598 0.10793 1.40398C0.0359297 1.29198 -7.02962e-05 1.11198 -7.02962e-05 0.863976C-7.02962e-05 0.615976 0.0359297 0.435977 0.10793 0.323977C0.18793 0.211976 0.28793 0.143976 0.40793 0.119976C0.52793 0.0959761 0.65193 0.083976 0.77993 0.083976H9.40793ZM16.7881 8.47198C16.4841 8.47198 16.2641 8.39998 16.1281 8.25598C15.9921 8.11198 15.9161 7.95598 15.9001 7.78798L16.0561 7.57198C15.9681 7.74798 15.8041 7.90398 15.5641 8.03998C15.3321 8.16798 15.0241 8.27198 14.6401 8.35198C14.2561 8.43198 13.7961 8.47198 13.2601 8.47198C12.6361 8.47198 12.0881 8.39998 11.6161 8.25598C11.1441 8.11198 10.7441 7.90798 10.4161 7.64398C10.0961 7.37198 9.85612 7.05198 9.69612 6.68398C9.53612 6.31598 9.45612 5.90798 9.45612 5.45998C9.45612 5.01198 9.53612 4.60798 9.69612 4.24798C9.85612 3.87998 10.0961 3.56798 10.4161 3.31198C10.7441 3.04798 11.1441 2.84798 11.6161 2.71198C12.0881 2.56798 12.6361 2.49598 13.2601 2.49598C13.7801 2.49598 14.2281 2.53598 14.6041 2.61598C14.9801 2.68798 15.2881 2.79198 15.5281 2.92798C15.7761 3.05598 15.9521 3.20798 16.0561 3.38398L15.9001 3.20398C15.9001 3.00398 15.9681 2.83598 16.1041 2.69998C16.2481 2.55598 16.4761 2.48398 16.7881 2.48398C17.0841 2.48398 17.2921 2.52798 17.4121 2.61598C17.5401 2.70398 17.6161 2.81998 17.6401 2.96398C17.6721 3.10798 17.6881 3.25998 17.6881 3.41998V7.55998C17.6881 7.71198 17.6721 7.85998 17.6401 8.00398C17.6161 8.14798 17.5401 8.26398 17.4121 8.35198C17.2921 8.43198 17.0841 8.47198 16.7881 8.47198ZM13.5121 6.86398C14.0241 6.86398 14.4361 6.80798 14.7481 6.69598C15.0601 6.57598 15.2881 6.41198 15.4321 6.20398C15.5761 5.99598 15.6481 5.75198 15.6481 5.47198C15.6481 5.19198 15.5721 4.94798 15.4201 4.73998C15.2761 4.53198 15.0481 4.37198 14.7361 4.25998C14.4241 4.13998 14.0081 4.07998 13.4881 4.07998C13.0001 4.07998 12.5961 4.13998 12.2761 4.25998C11.9561 4.37198 11.7201 4.53598 11.5681 4.75198C11.4161 4.95998 11.3401 5.20798 11.3401 5.49598C11.3401 5.76798 11.4161 6.00798 11.5681 6.21598C11.7201 6.41598 11.9561 6.57598 12.2761 6.69598C12.6041 6.80798 13.0161 6.86398 13.5121 6.86398ZM19.6645 8.47198C19.3765 8.47198 19.1685 8.42798 19.0405 8.33998C18.9125 8.25198 18.8325 8.13998 18.8005 8.00398C18.7765 7.86798 18.7645 7.72398 18.7645 7.57198V3.34798C18.7645 3.19598 18.7805 3.05598 18.8125 2.92798C18.8445 2.79198 18.9245 2.68398 19.0525 2.60398C19.1805 2.52398 19.3885 2.48398 19.6765 2.48398C19.9245 2.48398 20.1085 2.52798 20.2285 2.61598C20.3485 2.69598 20.4285 2.79198 20.4685 2.90398C20.5085 3.01598 20.5285 3.11998 20.5285 3.21598C20.5285 3.31198 20.5365 3.36398 20.5525 3.37198L20.4925 3.63598C20.5005 3.54798 20.5605 3.43998 20.6725 3.31198C20.7925 3.17598 20.9645 3.04398 21.1885 2.91598C21.4205 2.78798 21.7165 2.68398 22.0765 2.60398C22.4365 2.52398 22.8645 2.48398 23.3605 2.48398C24.0405 2.48398 24.6125 2.56798 25.0765 2.73598C25.5405 2.89598 25.9125 3.12398 26.1925 3.41998C26.4725 3.71598 26.6725 4.05598 26.7925 4.43998C26.9205 4.81598 26.9845 5.21598 26.9845 5.63998V7.58398C26.9845 7.72798 26.9685 7.87198 26.9365 8.01598C26.9045 8.15198 26.8245 8.26398 26.6965 8.35198C26.5765 8.43198 26.3725 8.47198 26.0845 8.47198C25.7885 8.47198 25.5765 8.42798 25.4485 8.33998C25.3205 8.25198 25.2405 8.13998 25.2085 8.00398C25.1765 7.86798 25.1605 7.72398 25.1605 7.57198V5.54398C25.1605 5.31198 25.1045 5.09198 24.9925 4.88398C24.8805 4.67598 24.6605 4.50798 24.3325 4.37998C24.0045 4.24398 23.5245 4.17598 22.8925 4.17598C22.2605 4.17598 21.7765 4.24398 21.4405 4.37998C21.1125 4.50798 20.8845 4.67598 20.7565 4.88398C20.6285 5.09198 20.5645 5.31198 20.5645 5.54398V7.58398C20.5645 7.72798 20.5485 7.87198 20.5165 8.01598C20.4845 8.15198 20.4085 8.26398 20.2885 8.35198C20.1685 8.43198 19.9605 8.47198 19.6645 8.47198ZM28.7331 8.48398C28.4771 8.48398 28.2611 8.39998 28.0851 8.23198C27.9171 8.05598 27.8331 7.84398 27.8331 7.59598C27.8331 7.46798 27.8571 7.32798 27.9051 7.17598C27.9531 7.02398 28.0531 6.91198 28.2051 6.83998L32.7171 4.28398H28.9971C28.8451 4.28398 28.6971 4.27198 28.5531 4.24798C28.4171 4.21598 28.3051 4.13598 28.2171 4.00798C28.1291 3.87998 28.0851 3.67198 28.0851 3.38398C28.0851 3.08798 28.1291 2.87998 28.2171 2.75998C28.3051 2.63198 28.4171 2.55598 28.5531 2.53198C28.6971 2.49998 28.8451 2.48398 28.9971 2.48398H34.9731C35.2291 2.48398 35.4411 2.56798 35.6091 2.73598C35.7851 2.90398 35.8731 3.11198 35.8731 3.35998C35.8731 3.49598 35.8411 3.62798 35.7771 3.75598C35.7211 3.87598 35.6251 3.97198 35.4891 4.04398L30.8691 6.67198H35.1171C35.2771 6.67198 35.4251 6.68798 35.5611 6.71998C35.6971 6.75198 35.8051 6.83198 35.8851 6.95998C35.9731 7.08798 36.0171 7.29998 36.0171 7.59598C36.0171 7.88398 35.9731 8.09198 35.8851 8.21998C35.7971 8.34798 35.6851 8.42398 35.5491 8.44798C35.4131 8.47198 35.2651 8.48398 35.1051 8.48398H28.7331ZM40.9485 8.57998C40.2605 8.57998 39.6565 8.50798 39.1365 8.36398C38.6165 8.21198 38.1805 7.99998 37.8285 7.72798C37.4765 7.44798 37.2085 7.11998 37.0245 6.74398C36.8485 6.35998 36.7605 5.94398 36.7605 5.49598C36.7605 5.03198 36.8485 4.61198 37.0245 4.23598C37.2085 3.85198 37.4725 3.51998 37.8165 3.23998C38.1685 2.95998 38.6045 2.74398 39.1245 2.59198C39.6445 2.43998 40.2485 2.36398 40.9365 2.36398C41.8565 2.36398 42.6245 2.49598 43.2405 2.75998C43.8645 3.02398 44.3325 3.38798 44.6445 3.85198C44.9645 4.31598 45.1245 4.85998 45.1245 5.48398C45.1245 5.93998 45.0365 6.35598 44.8605 6.73198C44.6845 7.10798 44.4205 7.43598 44.0685 7.71598C43.7165 7.98798 43.2805 8.19998 42.7605 8.35198C42.2405 8.50398 41.6365 8.57998 40.9485 8.57998ZM40.9365 6.89998C41.4725 6.89998 41.9125 6.83998 42.2565 6.71998C42.6005 6.59998 42.8525 6.43198 43.0125 6.21598C43.1805 5.99998 43.2645 5.74798 43.2645 5.45998C43.2645 5.16398 43.1805 4.91198 43.0125 4.70398C42.8525 4.49598 42.5965 4.33598 42.2445 4.22398C41.9005 4.10398 41.4605 4.04398 40.9245 4.04398C40.3965 4.04398 39.9605 4.11198 39.6165 4.24798C39.2805 4.37598 39.0285 4.54798 38.8605 4.76398C38.7005 4.97198 38.6205 5.20798 38.6205 5.47198C38.6205 5.75998 38.7005 6.01198 38.8605 6.22798C39.0285 6.44398 39.2845 6.61198 39.6285 6.73198C39.9725 6.84398 40.4085 6.89998 40.9365 6.89998ZM57.5328 8.60398C56.9248 8.60398 56.3768 8.56798 55.8888 8.49598C55.4008 8.43198 54.9648 8.34398 54.5808 8.23198C54.2048 8.11198 53.8808 7.97998 53.6088 7.83598C53.3448 7.68398 53.1288 7.53598 52.9608 7.39198C52.8488 7.28798 52.7768 7.19598 52.7448 7.11598C52.7208 7.02798 52.7248 6.93998 52.7568 6.85198C52.7968 6.76398 52.8608 6.67598 52.9488 6.58798C53.0368 6.48398 53.1248 6.42398 53.2128 6.40798C53.3008 6.39198 53.3928 6.40798 53.4888 6.45598C53.5928 6.50398 53.7048 6.58398 53.8248 6.69598C54.1208 6.94398 54.5728 7.15198 55.1808 7.31998C55.7968 7.47998 56.5848 7.55998 57.5448 7.55998C58.1848 7.55998 58.7448 7.51598 59.2248 7.42798C59.7048 7.33998 60.0808 7.19998 60.3528 7.00798C60.6248 6.81598 60.7608 6.56398 60.7608 6.25198C60.7608 5.97998 60.6608 5.75598 60.4608 5.57998C60.2688 5.40398 60.0048 5.25598 59.6688 5.13598C59.3328 5.01598 58.9528 4.91598 58.5288 4.83598C58.1048 4.74798 57.6648 4.66398 57.2088 4.58398C56.7928 4.51998 56.3768 4.44798 55.9608 4.36798C55.5528 4.27998 55.1648 4.17998 54.7968 4.06798C54.4288 3.95598 54.1008 3.81998 53.8128 3.65998C53.5248 3.49198 53.3008 3.29198 53.1408 3.05998C52.9808 2.81998 52.9008 2.54398 52.9008 2.23198C52.9008 1.72798 53.0728 1.31198 53.4168 0.983976C53.7608 0.655976 54.2328 0.411976 54.8328 0.251976C55.4328 0.0839763 56.1128 -2.36034e-05 56.8728 -2.36034e-05C57.4568 -2.36034e-05 57.9848 0.0319762 58.4568 0.0959759C58.9288 0.159976 59.3408 0.235976 59.6928 0.323977C60.0448 0.411976 60.3408 0.503976 60.5808 0.599977C60.8208 0.695976 61.0008 0.775976 61.1208 0.839976C61.3048 0.943976 61.4128 1.05198 61.4448 1.16398C61.4848 1.27598 61.4568 1.40398 61.3608 1.54798C61.2488 1.72398 61.1328 1.83198 61.0128 1.87198C60.8928 1.91198 60.7448 1.88398 60.5688 1.78798C60.3528 1.66798 60.0728 1.55198 59.7288 1.43998C59.3928 1.32798 58.9888 1.23598 58.5168 1.16398C58.0528 1.08398 57.5168 1.04398 56.9088 1.04398C56.5088 1.04398 56.1328 1.06398 55.7808 1.10398C55.4368 1.14398 55.1288 1.20798 54.8568 1.29598C54.5928 1.38398 54.3848 1.50798 54.2328 1.66798C54.0808 1.81998 54.0048 2.01198 54.0048 2.24398C54.0048 2.44398 54.0928 2.61598 54.2688 2.75998C54.4448 2.90398 54.6888 3.02398 55.0008 3.11998C55.3128 3.21598 55.6648 3.30398 56.0568 3.38398C56.4488 3.45598 56.8608 3.53198 57.2928 3.61198C57.8288 3.70798 58.3688 3.81598 58.9128 3.93598C59.4568 4.05598 59.9488 4.20798 60.3888 4.39198C60.8368 4.57598 61.1968 4.81598 61.4688 5.11198C61.7408 5.40798 61.8768 5.77598 61.8768 6.21598C61.8768 6.59998 61.7688 6.94398 61.5528 7.24798C61.3448 7.54398 61.0448 7.79198 60.6528 7.99198C60.2688 8.19198 59.8088 8.34398 59.2728 8.44798C58.7448 8.55198 58.1648 8.60398 57.5328 8.60398ZM67.9866 8.49598C67.5386 8.49598 67.0946 8.45598 66.6546 8.37598C66.2146 8.28798 65.8186 8.15998 65.4666 7.99198C65.1146 7.81598 64.8306 7.60798 64.6146 7.36798C64.4066 7.12798 64.3026 6.85598 64.3026 6.55198V1.24798C64.3026 1.13598 64.3146 1.03998 64.3386 0.959976C64.3626 0.879976 64.4106 0.819976 64.4826 0.779976C64.5626 0.731976 64.6746 0.707976 64.8186 0.707976C64.9786 0.707976 65.0946 0.731976 65.1666 0.779976C65.2466 0.819976 65.2986 0.879976 65.3226 0.959976C65.3466 1.03198 65.3586 1.12398 65.3586 1.23598V6.55198C65.3586 6.69598 65.4346 6.82798 65.5866 6.94798C65.7466 7.05998 65.9506 7.15598 66.1986 7.23598C66.4546 7.31598 66.7386 7.37598 67.0506 7.41598C67.3626 7.45598 67.6746 7.47598 67.9866 7.47598C68.1066 7.47598 68.2066 7.48798 68.2866 7.51198C68.3666 7.53598 68.4266 7.58398 68.4666 7.65598C68.5066 7.72798 68.5266 7.83598 68.5266 7.97998C68.5266 8.13198 68.5026 8.24798 68.4546 8.32798C68.4146 8.39998 68.3546 8.44398 68.2746 8.45998C68.1946 8.48398 68.0986 8.49598 67.9866 8.49598ZM62.9706 2.81998L65.0106 2.83198L68.1786 2.80798C68.2906 2.79998 68.3866 2.80798 68.4666 2.83198C68.5466 2.85598 68.6066 2.90798 68.6466 2.98798C68.6946 3.05998 68.7186 3.17198 68.7186 3.32398C68.7186 3.47598 68.6986 3.59198 68.6586 3.67198C68.6186 3.74398 68.5586 3.79198 68.4786 3.81598C68.4066 3.83998 68.3146 3.85198 68.2026 3.85198L65.0346 3.82798L62.9346 3.83998C62.7746 3.83998 62.6626 3.79998 62.5986 3.71998C62.5346 3.63998 62.5026 3.50798 62.5026 3.32398C62.5026 3.14798 62.5386 3.01998 62.6106 2.93998C62.6906 2.85998 62.8106 2.81998 62.9706 2.81998ZM73.6624 8.55598C72.9904 8.55598 72.3984 8.48398 71.8864 8.33998C71.3744 8.18798 70.9424 7.97598 70.5904 7.70398C70.2464 7.43198 69.9824 7.11998 69.7984 6.76798C69.6224 6.40798 69.5344 6.01998 69.5344 5.60398C69.5344 5.18798 69.6224 4.79998 69.7984 4.43998C69.9824 4.07198 70.2464 3.75198 70.5904 3.47998C70.9344 3.20798 71.3584 2.99598 71.8624 2.84398C72.3744 2.69198 72.9664 2.61598 73.6384 2.61598C74.5504 2.61598 75.3104 2.74798 75.9184 3.01198C76.5264 3.26798 76.9864 3.61998 77.2984 4.06798C77.6104 4.50798 77.7664 5.01598 77.7664 5.59198C77.7664 6.01598 77.6784 6.40798 77.5024 6.76798C77.3344 7.12798 77.0744 7.44398 76.7224 7.71598C76.3784 7.97998 75.9504 8.18798 75.4384 8.33998C74.9344 8.48398 74.3424 8.55598 73.6624 8.55598ZM73.6384 7.58398C74.3344 7.58398 74.9104 7.49598 75.3664 7.31998C75.8224 7.14398 76.1584 6.90398 76.3744 6.59998C76.5984 6.29598 76.7104 5.95198 76.7104 5.56798C76.7104 5.17598 76.5984 4.83198 76.3744 4.53598C76.1584 4.23998 75.8224 4.00798 75.3664 3.83998C74.9184 3.67198 74.3384 3.58798 73.6264 3.58798C72.9384 3.58798 72.3704 3.67598 71.9224 3.85198C71.4744 4.02798 71.1424 4.26798 70.9264 4.57198C70.7104 4.86798 70.6024 5.20398 70.6024 5.57998C70.6024 5.96398 70.7104 6.30798 70.9264 6.61198C71.1424 6.91598 71.4744 7.15598 71.9224 7.33198C72.3784 7.49998 72.9504 7.58398 73.6384 7.58398ZM79.3144 8.49598C79.1624 8.49598 79.0464 8.47198 78.9664 8.42398C78.8944 8.38398 78.8464 8.32398 78.8224 8.24398C78.8064 8.15598 78.7984 8.05598 78.7984 7.94398V3.21598C78.7984 3.09598 78.8104 2.99598 78.8344 2.91598C78.8584 2.83598 78.9064 2.77998 78.9784 2.74798C79.0504 2.70798 79.1664 2.68798 79.3264 2.68798C79.4704 2.68798 79.5784 2.70798 79.6504 2.74798C79.7304 2.77998 79.7824 2.83198 79.8064 2.90398C79.8384 2.96798 79.8544 3.04398 79.8544 3.13198L79.8064 3.63598C79.8704 3.49998 79.9744 3.37198 80.1184 3.25198C80.2704 3.13198 80.4584 3.02398 80.6824 2.92798C80.9064 2.83198 81.1664 2.75598 81.4624 2.69998C81.7584 2.63598 82.0824 2.60398 82.4344 2.60398C82.6744 2.60398 82.9024 2.61998 83.1184 2.65198C83.3424 2.68398 83.5504 2.72798 83.7424 2.78398C83.9344 2.83998 84.0984 2.90398 84.2344 2.97598C84.3784 3.04798 84.4904 3.11998 84.5704 3.19198C84.6504 3.26398 84.6904 3.33998 84.6904 3.41998C84.6904 3.59598 84.6384 3.74798 84.5344 3.87598C84.4384 3.99598 84.3264 4.05598 84.1984 4.05598C84.0944 4.05598 83.9904 4.03198 83.8864 3.98398C83.7824 3.93598 83.6584 3.88398 83.5144 3.82798C83.3784 3.76398 83.1984 3.70798 82.9744 3.65998C82.7584 3.61198 82.4744 3.58798 82.1224 3.58798C81.8664 3.58798 81.6024 3.61598 81.3304 3.67198C81.0664 3.71998 80.8224 3.79198 80.5984 3.88798C80.3824 3.97598 80.2024 4.09598 80.0584 4.24798C79.9224 4.39198 79.8544 4.55998 79.8544 4.75198V7.96798C79.8544 8.07998 79.8424 8.17598 79.8184 8.25598C79.7944 8.33598 79.7424 8.39598 79.6624 8.43598C79.5904 8.47598 79.4744 8.49598 79.3144 8.49598ZM88.9928 8.54398C88.2408 8.54398 87.5968 8.46798 87.0608 8.31598C86.5248 8.15598 86.0888 7.93998 85.7528 7.66798C85.4168 7.38798 85.1688 7.06798 85.0088 6.70798C84.8568 6.34798 84.7808 5.95998 84.7808 5.54398C84.7808 4.99998 84.9288 4.51198 85.2248 4.07998C85.5288 3.64798 85.9888 3.30798 86.6048 3.05998C87.2208 2.80398 88.0008 2.67598 88.9448 2.67598C89.5928 2.67598 90.1488 2.73598 90.6128 2.85598C91.0848 2.97598 91.4768 3.13998 91.7888 3.34798C92.1008 3.55598 92.3328 3.78798 92.4848 4.04398C92.6368 4.29998 92.7128 4.55598 92.7128 4.81198C92.7128 5.21198 92.6168 5.49198 92.4248 5.65198C92.2328 5.81198 91.9968 5.89198 91.7168 5.89198H85.8728C85.8648 6.21998 85.9808 6.51598 86.2208 6.77998C86.4688 7.04398 86.8288 7.25198 87.3008 7.40398C87.7808 7.54798 88.3528 7.61998 89.0168 7.61998C89.4408 7.61998 89.8008 7.60798 90.0968 7.58398C90.3928 7.55198 90.6408 7.51198 90.8408 7.46398C91.0488 7.41598 91.2208 7.36798 91.3568 7.31998C91.4928 7.26398 91.6088 7.21998 91.7048 7.18798C91.8008 7.14798 91.8928 7.11998 91.9808 7.10398C92.0688 7.09598 92.1488 7.10398 92.2208 7.12798C92.2928 7.14398 92.3528 7.19998 92.4008 7.29598C92.4648 7.41598 92.4928 7.50798 92.4848 7.57198C92.4768 7.63598 92.4488 7.69598 92.4008 7.75198C92.3208 7.87198 92.1328 7.99598 91.8368 8.12398C91.5408 8.24398 91.1528 8.34398 90.6728 8.42398C90.1928 8.50398 89.6328 8.54398 88.9928 8.54398ZM85.8728 5.17198H91.2728C91.4248 5.17198 91.5408 5.16798 91.6208 5.15998C91.7088 5.14398 91.7528 5.03198 91.7528 4.82398C91.7528 4.59998 91.6488 4.39598 91.4408 4.21198C91.2328 4.01998 90.9208 3.86798 90.5048 3.75598C90.0888 3.63598 89.5648 3.57598 88.9328 3.57598C88.2448 3.57598 87.6768 3.64798 87.2288 3.79198C86.7888 3.92798 86.4568 4.11598 86.2328 4.35598C86.0088 4.59598 85.8888 4.86798 85.8728 5.17198Z" fill="#111111"/>
<path d="M48.6382 8.60798C48.0389 8.60798 47.6426 8.49198 47.4492 8.25998C47.2559 8.02798 47.1592 7.66064 47.1592 7.15798C47.1592 6.90664 47.1786 6.67464 47.2172 6.46198C47.2559 6.22998 47.3816 6.03664 47.5942 5.88198C47.8069 5.72731 48.1549 5.64998 48.6382 5.64998C49.2762 5.64998 49.6822 5.76598 49.8562 5.99798C50.0302 6.22998 50.1172 6.61664 50.1172 7.15798C50.1172 7.38998 50.0979 7.62198 50.0592 7.85398C50.0206 8.06664 49.8949 8.24064 49.6822 8.37598C49.4889 8.53064 49.1409 8.60798 48.6382 8.60798Z" fill="#6AECE1"/>
</svg>
